P3
# CREATOR: GIMP PNM Filter Version 1.1
256 1
255
68
66
255
69
66
255
69
66
255
68
66
255
68
66
255
69
66
255
69
67
255
69
68
255
68
68
255
68
68
255
68
68
255
68
69
254
68
70
254
67
70
255
67
71
254
67
71
254
67
71
254
67
72
255
67
72
254
66
73
254
67
73
254
67
73
254
66
74
254
65
74
254
66
74
254
66
75
254
65
76
254
65
75
254
65
76
254
65
77
254
65
77
254
65
78
254
64
78
254
64
79
254
64
79
254
64
79
254
63
80
254
64
80
254
63
80
254
64
81
253
64
81
254
63
82
254
63
83
253
63
82
254
62
83
253
63
83
254
62
84
253
62
85
253
62
85
253
62
85
253
62
86
253
61
86
253
62
86
253
62
86
253
61
87
253
61
88
253
61
88
252
61
88
253
61
89
253
60
90
252
60
89
252
60
90
252
60
90
252
59
91
253
59
91
252
59
91
253
59
93
253
59
93
252
59
93
252
58
93
252
59
94
253
58
94
252
58
95
252
58
95
252
58
95
252
58
96
252
58
96
252
58
96
252
57
97
251
58
98
252
57
98
251
57
99
252
56
99
252
57
99
251
56
99
252
56
100
252
56
101
251
56
102
252
56
102
252
55
102
251
55
103
252
55
103
251
55
103
251
55
104
251
55
104
251
53
109
247
51
113
243
50
117
240
48
121
236
46
125
233
44
129
229
43
133
226
42
138
223
39
142
219
38
145
216
36
150
212
35
153
209
33
158
205
31
164
200
28
170
195
25
175
190
23
181
185
21
187
180
19
193
175
16
199
170
14
205
165
11
210
159
29
198
169
58
177
184
86
156
201
119
131
219
153
105
238
172
91
249
169
91
249
166
91
250
163
91
249
161
90
250
157
90
249
155
90
250
153
90
249
149
90
249
148
90
249
145
90
250
143
90
249
149
84
250
162
73
250
175
63
250
187
53
251
200
42
252
216
30
253
232
19
253
248
6
255
255
6
248
255
19
236
255
30
225
255
42
213
255
55
200
255
67
188
255
79
176
255
91
164
255
103
151
255
116
139
255
128
127
255
142
113
255
156
99
255
171
84
255
185
70
255
200
56
255
214
41
255
227
27
255
242
13
255
255
0
255
255
0
255
255
0
255
255
0
255
255
0
255
255
0
255
255
0
255
255
0
255
255
0
255
255
0
255
255
0
255
255
0
255
255
0
255
255
0
255
255
0
255
255
0
255
255
0
255
255
0
255
255
0
255
255
0
255
255
0
255
255
0
255
255
0
255
255
0
255
255
0
255
255
0
255
255
0
255
255
0
255
255
0
255
255
0
255
255
0
255
255
0
255
255
0
255
255
0
255
255
0
255
255
0
255
255
0
255
255
0
255
255
0
255
255
0
255
255
0
255
255
0
255
255
0
255
255
0
255
255
0
255
255
0
255
255
0
255
255
0
255
255
0
255
255
0
255
255
0
255
255
0
255
255
0
255
255
0
255
255
0
255
255
0
255
255
0
255
255
0
255
255
0
255
255
0
255
255
0
255
255
0
255
255
0
255
255
0
255
255
0
255
255
0
255
255
0
255
255
0
255
255
0
255
255
0
255
255
0
255
255
0
255
255
0
255
255
0
255
255
0
255
255
0
255
255
0
255
255
0
255
255
0
255
255
0
255
255
0
255
255
0
255
255
0
255
255
0
255
255
0
255
255
0
255
255
0
255
255
0
255
255
0
255
255
0
255
255
0
255
255
0
255
255
0
255
255
0
255
255
0
