P3
# CREATOR: GIMP PNM Filter Version 1.1
256 1
255
255
0
255
255
0
255
255
0
255
255
0
255
248
0
255
227
0
255
207
0
255
187
0
255
167
0
255
146
0
255
126
0
255
106
0
255
86
0
255
66
0
255
45
0
255
25
0
255
5
0
255
0
16
255
0
36
255
0
56
255
0
76
255
0
97
255
0
117
255
0
137
255
0
157
255
0
178
255
0
198
255
0
218
255
0
238
255
0
255
252
0
255
231
0
255
212
0
255
191
0
255
170
0
255
150
0
255
131
0
255
110
0
255
90
0
255
70
0
255
50
0
255
29
0
255
9
11
255
0
32
255
0
52
255
0
72
255
0
92
255
0
112
255
0
133
255
0
153
255
0
173
255
0
193
255
0
214
255
0
234
255
0
254
255
0
255
236
0
255
215
0
255
195
0
255
175
0
255
154
0
255
134
0
255
114
0
255
93
0
255
73
0
255
53
0
255
33
0
255
13
0
255
7
0
255
28
0
255
48
0
255
68
0
255
89
0
255
109
0
255
129
0
255
149
0
255
169
0
255
190
0
255
210
0
255
230
0
255
250
0
239
255
0
220
255
0
199
255
0
179
255
0
159
255
0
138
255
0
118
255
0
98
255
0
78
255
0
58
255
0
38
255
0
17
255
0
0
255
3
0
255
24
0
255
44
0
255
64
0
255
84
0
255
105
0
255
125
0
255
145
0
255
165
0
255
186
0
255
205
0
255
226
0
255
246
0
244
255
0
224
255
0
203
255
0
183
255
0
163
255
0
143
255
0
122
255
0
102
255
0
82
255
0
62
255
0
41
255
0
21
255
0
0
255
20
0
255
40
0
255
59
0
255
80
0
255
100
0
255
120
0
255
141
0
255
161
0
255
182
0
255
202
0
255
222
0
255
242
0
255
247
0
255
228
0
255
207
0
255
186
0
255
167
0
255
147
0
255
126
0
255
106
0
255
85
0
255
66
0
255
46
0
255
25
0
255
5
0
255
0
16
255
0
35
255
0
56
255
0
77
255
0
96
255
0
116
255
0
137
255
0
157
255
0
178
255
0
198
255
0
218
255
0
238
255
0
255
252
0
255
232
0
255
211
0
255
191
0
255
170
0
255
151
0
255
131
0
255
110
0
255
90
0
255
70
0
255
50
0
255
29
0
255
9
11
255
0
31
255
0
52
255
0
72
255
0
92
255
0
112
255
0
133
255
0
153
255
0
173
255
0
193
255
0
214
255
0
234
255
0
255
255
0
255
235
0
255
216
0
255
195
0
255
175
0
255
155
0
255
134
0
255
115
0
255
94
0
255
73
0
255
53
0
255
33
0
255
13
0
255
7
0
255
28
0
255
48
0
255
68
0
255
89
0
255
109
0
255
129
0
255
149
0
255
170
0
255
189
0
255
210
0
255
230
0
255
250
0
239
255
0
220
255
0
199
255
0
179
255
0
159
255
0
138
255
0
118
255
0
98
255
0
77
255
0
57
255
0
37
255
0
17
255
0
0
255
3
0
255
23
0
255
44
0
255
64
0
255
84
0
255
105
0
255
124
0
255
145
0
255
166
0
255
186
0
255
206
0
255
225
0
255
246
0
243
255
0
223
255
0
203
255
0
183
255
0
163
255
0
142
255
0
123
255
0
102
255
0
82
255
0
61
255
0
41
255
0
21
255
0
0
255
20
0
255
40
0
255
60
0
255
80
0
255
101
0
255
121
0
255
141
0
255
161
0
255
182
0
255
202
0
255
222
0
255
242
0
255
