P3
# CREATOR: GIMP PNM Filter Version 1.1
256 1
255
29
29
29
29
29
29
30
30
29
32
30
29
33
31
29
34
31
29
35
31
29
36
31
29
37
33
29
39
33
29
40
33
29
41
34
28
43
34
28
44
34
29
45
35
29
46
35
28
47
36
28
48
37
29
50
37
29
50
38
29
52
38
29
53
38
29
54
38
28
56
39
29
57
40
28
58
40
29
60
41
28
60
40
28
61
41
29
63
42
28
64
42
28
65
42
29
67
43
29
68
43
29
69
44
29
69
44
29
71
45
28
72
45
29
73
45
28
74
46
28
76
47
28
77
47
29
78
47
28
79
48
28
81
48
28
82
49
28
83
50
28
84
49
28
86
50
28
87
50
28
88
50
28
89
51
29
90
52
28
91
52
28
93
52
28
94
53
28
95
53
28
96
54
28
98
54
28
100
56
28
102
56
28
104
57
28
107
58
29
108
58
28
110
59
28
112
60
28
114
61
27
117
62
28
119
62
28
121
63
28
123
64
28
125
65
28
127
66
28
129
67
28
132
68
28
134
68
28
136
69
28
138
69
28
140
71
28
142
71
28
144
72
28
146
73
28
148
73
28
151
74
27
153
75
27
154
76
27
157
77
28
159
78
27
161
79
28
164
79
28
165
80
30
166
83
33
167
86
36
169
88
39
169
91
43
170
93
47
171
95
50
173
98
53
174
101
57
174
103
60
176
106
64
177
108
67
178
110
71
180
113
74
180
115
77
181
118
81
182
120
85
184
123
88
185
126
92
186
128
95
187
130
99
188
132
102
189
135
105
190
137
109
191
140
112
192
143
116
193
145
120
195
148
123
196
151
128
198
153
131
199
156
136
200
160
140
202
162
144
203
165
148
204
168
151
205
171
156
207
173
160
207
176
164
209
180
167
210
182
171
212
185
175
212
187
179
213
191
184
215
193
187
217
197
191
217
200
195
219
202
199
220
205
204
222
208
207
220
207
207
217
203
202
214
198
197
210
194
194
207
189
189
203
185
184
200
181
180
197
177
176
194
172
171
190
168
166
187
164
162
184
159
157
180
155
153
177
150
148
174
146
144
170
141
139
167
137
135
164
133
130
160
129
126
157
124
122
153
118
115
145
109
106
137
99
95
130
88
85
122
79
75
115
69
65
107
59
55
99
50
45
91
40
34
87
33
27
86
33
27
87
33
27
87
33
27
88
34
27
88
33
28
90
34
28
91
35
28
92
36
28
94
37
29
96
39
29
98
40
29
101
41
30
105
44
31
108
46
31
112
48
31
117
51
33
122
54
34
127
57
35
133
60
35
140
64
36
147
69
38
154
73
39
162
78
40
171
83
42
180
88
43
189
93
45
200
99
46
210
106
49
221
113
51
233
120
52
246
127
55
254
133
56
248
129
54
243
128
53
238
124
52
233
122
51
228
119
51
223
116
49
217
114
48
212
111
47
207
109
46
202
106
44
196
104
43
192
101
42
186
98
41
181
96
40
176
93
38
171
90
37
166
88
37
160
86
35
156
83
34
152
81
34
149
80
33
146
79
32
144
76
31
140
76
31
138
74
30
135
73
30
132
71
30
130
70
29
127
69
29
125
67
27
122
66
27
119
64
27
116
63
26
114
62
26
111
60
25
109
59
24
105
58
23
102
57
23
100
55
22
97
54
21
95
52
21
92
51
20
89
50
19
86
48
20
83
47
18
81
45
18
78
44
17
75
43
17
73
41
16
70
40
15
68
38
15
65
37
14
62
36
14
59
35
13
56
33
13
